<svg width="2574" height="510" viewBox="0 0 2574 510" fill="none" xmlns="http://www.w3.org/2000/svg">
<path d="M0.310059 502.3V7.69995H418.87V107.36H111.04V218.83H407.8V317.75H111.04V502.3H0.310059Z" fill="white"/>
<path d="M455.05 255C455.05 100.72 556.92 0.319824 720.8 0.319824C884.68 0.319824 989.51 100.72 989.51 255C989.51 409.28 888.38 509.68 720.8 509.68C553.22 509.68 455.05 409.28 455.05 255ZM871.4 255C871.4 145.01 829.32 106.62 720.81 106.62C612.3 106.62 572.43 145.01 572.43 255C572.43 364.99 612.29 403.38 720.81 403.38C829.33 403.38 871.4 364.99 871.4 255Z" fill="white"/>
<path d="M1026.41 255C1026.41 100.72 1127.54 0.319824 1290.69 0.319824C1444.24 0.319824 1543.16 77.0898 1543.16 202.59V213.66H1419.88V202.59C1419.88 137.63 1382.97 106.62 1292.91 106.62C1184.39 106.62 1143.79 145.01 1143.79 255C1143.79 364.99 1184.39 403.38 1292.91 403.38C1382.97 403.38 1419.88 372.38 1419.88 307.41V296.34H1543.16V307.41C1543.16 432.91 1444.98 509.68 1290.69 509.68C1127.55 509.68 1026.41 409.28 1026.41 255Z" fill="white"/>
<path d="M1587.45 295.6V7.69995H1698.18V287.48C1698.18 371.64 1729.92 401.9 1830.32 401.9C1930.72 401.9 1962.46 371.63 1962.46 287.48V7.69995H2073.19V295.6C2073.19 428.48 1991.99 509.68 1830.32 509.68C1668.65 509.68 1587.45 428.48 1587.45 295.6Z" fill="white"/>
<path d="M2119.69 335.46V331.03H2230.42V344.32C2230.42 390.09 2253.3 408.54 2353.7 408.54C2442.28 408.54 2462.95 395.25 2462.95 362.03C2462.95 331.76 2445.97 320.69 2395.03 311.83L2256.25 291.9C2167.67 277.87 2115.25 233.58 2115.25 153.12C2115.25 78.56 2175.78 0.310059 2341.88 0.310059C2493.95 0.310059 2564.82 70.44 2564.82 174.53V178.96H2453.35V168.63C2453.35 121.38 2428.99 101.45 2330.81 101.45C2251.08 101.45 2226.72 116.95 2226.72 148.7C2226.72 177.49 2242.96 187.82 2284.3 195.21L2423.08 217.36C2533.81 235.08 2573.67 288.97 2573.67 356.88C2573.67 437.34 2510.92 509.69 2353.68 509.69C2196.44 509.69 2119.67 450.63 2119.67 335.47L2119.69 335.46Z" fill="white"/>
</svg>
